<svg xmlns="http://www.w3.org/2000/svg" viewBox="0 0 24 22"><defs><style>.a{fill:none;stroke:#fe8b00;stroke-linecap:round;stroke-linejoin:round;stroke-miterlimit:10;}.b{fill:#fe8b00;}</style></defs><path class="a" d="M7.5,7.5h-5a2.006,2.006,0,0,0-2,2v7a2.006,2.006,0,0,0,2,2h9l3,3v-8"/><path class="a" d="M21.5,11.5h-9l-3,3V2.5a2.006,2.006,0,0,1,2-2h10a2.006,2.006,0,0,1,2,2v7A2.006,2.006,0,0,1,21.5,11.5Z"/><circle class="b" cx="0.5" cy="0.5" r="0.5" transform="translate(13 5)"/><circle class="b" cx="0.5" cy="0.5" r="0.5" transform="translate(16 5)"/><circle class="b" cx="0.5" cy="0.5" r="0.5" transform="translate(19 5)"/></svg>