<svg xmlns="http://www.w3.org/2000/svg" viewBox="0 0 23.83 20"><defs><style>.a{fill:none;stroke:#fe8b00;stroke-linecap:round;stroke-linejoin:round;stroke-miterlimit:10;}</style></defs><g transform="translate(0.015)"><path class="a" d="M18.4,5.4a3,3,0,1,1-6,0V3.6a3,3,0,1,1,6,0Z"/><circle class="a" cx="2.5" cy="2.5" r="2.5" transform="translate(4.9 1)"/><path class="a" d="M9.9,11.6A6.034,6.034,0,0,0,.5,15.4a.972.972,0,0,0,1,1.1H6.4"/><path class="a" d="M15.4,11.5h0a7.981,7.981,0,0,0-7.9,6.9.972.972,0,0,0,1,1.1H22.3a.972.972,0,0,0,1-1.1A7.981,7.981,0,0,0,15.4,11.5Z"/></g></svg>