<svg id="Layer_1" data-name="Layer 1" xmlns="http://www.w3.org/2000/svg" xmlns:xlink="http://www.w3.org/1999/xlink" viewBox="0 0 187.00 127">
    <defs>
        <style>
        .cls-1 {
            fill: none;
        }

        .cls-2 { 
            clip-path: url(#clip-path);
        }

        .tagline { <!-- tagline -->
            fill: #009ee2;
        }

        .sitetitle { <!-- title -->
            fill: #fff;
        }

        .hartlogo { <!-- hart -->
            fill: url(#radial-gradient);
        }

        .cls-6 {
            clip-path: url(#clip-path-3);
        }

        .cls-7 {
            fill: url(#linear-gradient);
        }

        </style>
        <clipPath id="clip-path">
            <rect class="cls-1" x="5.5" y="6.77" width="160.56" height="112.66" />
        </clipPath>
        <radialGradient id="radial-gradient" cx="93.61" cy="34.03" r="51.03" gradientUnits="userSpaceOnUse">
            <stop offset="0" stop-color="#ff8c00" />
            <stop offset="0" stop-color="#ff8c00" />
            <stop offset="0.27" stop-color="#fc8a00" />
            <stop offset="0.45" stop-color="#f38500" />
            <stop offset="0.61" stop-color="#e47d00" />
            <stop offset="0.75" stop-color="#cf7100" />
            <stop offset="0.87" stop-color="#b46100" />
            <stop offset="0.99" stop-color="#934f00" />
            <stop offset="1" stop-color="#934f00" />
        </radialGradient>
        <clipPath id="clip-path-3">
            <path class="cls-1" d="M88.28,72.45H98.94L93.61,86.62Zm-1.39-6h0a4.77,4.77,0,0,0-5,4.92v.08a6.41,6.41,0,0,0,.36,2.08C83.46,77,88.41,89.86,89.68,93.2c.79,2.09,2.26,3.22,4,3.23h0c1.69,0,3.16-1.14,4-3.23C98.87,89.86,103.76,77,105,73.53s-.52-7-4.56-7.07v0Z" />
        </clipPath>
        <linearGradient id="linear-gradient" x1="-203.62" y1="338.63" x2="-202.62" y2="338.63" gradientTransform="translate(13884.93 8358.64) rotate(90) scale(40.73)" xlink:href="#radial-gradient" />
    </defs>
    <title>webhart neg</title>
    <g class="cls-2">
        <path class="tagline" d="M143.14,115.35c0-.3-.29-.53-.67-.7a2.76,2.76,0,0,0-1.2-.26c-1.3,0-2,.63-2,1.43s.41,1.32,1.8,1.7c.65.17.91.28.91.55s-.28.39-.7.39a1.92,1.92,0,0,1-1.05-.33.9.9,0,0,0-.52-.18.44.44,0,0,0-.48.42.65.65,0,0,0,.28.56,3,3,0,0,0,1.74.5c1.24,0,2-.59,2-1.47s-.75-1.3-1.79-1.59c-.71-.19-.92-.28-.92-.56s.28-.36.69-.36a2.07,2.07,0,0,1,.81.17,1.79,1.79,0,0,0,.58.21.45.45,0,0,0,.51-.48m-7.69,1.06h-2.12a1,1,0,0,1,1.09-1,1.07,1.07,0,0,1,1,1m1.25.5a2.31,2.31,0,0,0-2.28-2.52,2.42,2.42,0,0,0-2.49,2.52,2.37,2.37,0,0,0,2.51,2.52A2.8,2.8,0,0,0,136,119a.83.83,0,0,0,.48-.66.48.48,0,0,0-.53-.48.74.74,0,0,0-.49.22,1.64,1.64,0,0,1-1,.32,1.11,1.11,0,0,1-1.19-1h2.93a.42.42,0,0,0,.47-.43m-9.35,1.82a.66.66,0,1,0,1.32,0v-3.11h.86a.54.54,0,0,0,.55-.55.55.55,0,0,0-.55-.55h-.86v-1.36a.66.66,0,1,0-1.32,0v1.36h-.73a.54.54,0,0,0-.54.55.53.53,0,0,0,.54.55h.73Zm-5,0a.66.66,0,0,0,1.32,0V115.1a.66.66,0,0,0-1.32,0ZM122.3,113a.75.75,0,1,0,.75-.74.74.74,0,0,0-.75.74m-2.72,2.36c0-.3-.29-.53-.67-.7a2.79,2.79,0,0,0-1.2-.26c-1.3,0-2,.63-2,1.43s.4,1.32,1.8,1.7c.65.17.9.28.9.55s-.27.39-.69.39a2,2,0,0,1-1.06-.33.85.85,0,0,0-.51-.18.45.45,0,0,0-.49.42.66.66,0,0,0,.29.56,3,3,0,0,0,1.74.5c1.24,0,2-.59,2-1.47s-.75-1.3-1.8-1.59c-.7-.19-.91-.28-.91-.56s.28-.36.68-.36a2.08,2.08,0,0,1,.82.17,1.71,1.71,0,0,0,.58.21.45.45,0,0,0,.51-.48m-7.71,1.56a1.21,1.21,0,1,1-1.2-1.4,1.25,1.25,0,0,1,1.2,1.4m-3.7,1.82a.63.63,0,0,0,.64.66.64.64,0,0,0,.63-.68v-.06a1.77,1.77,0,0,0,1.51.78,2.54,2.54,0,0,0,0-5,1.66,1.66,0,0,0-1.46.78v-2.63a.66.66,0,0,0-1.32,0Zm-4-2.32H102a1,1,0,0,1,1.09-1,1.07,1.07,0,0,1,1,1m1.26.5a2.31,2.31,0,0,0-2.29-2.52,2.43,2.43,0,0,0-2.49,2.52,2.37,2.37,0,0,0,2.51,2.52,2.84,2.84,0,0,0,1.61-.44.82.82,0,0,0,.47-.66.48.48,0,0,0-.53-.48.71.71,0,0,0-.48.22,1.64,1.64,0,0,1-1,.32,1.11,1.11,0,0,1-1.19-1H105a.42.42,0,0,0,.47-.43m-9.73-2.08a.56.56,0,0,0-1.07,0l-.92,2.53-.77-2.55a.48.48,0,0,0-.51-.37.57.57,0,0,0-.61.57.63.63,0,0,0,0,.22L93.12,119a.54.54,0,0,0,.56.38.56.56,0,0,0,.55-.4l.93-2.66.92,2.66a.56.56,0,0,0,.55.4.54.54,0,0,0,.56-.38l1.27-3.78a.93.93,0,0,0,0-.22.57.57,0,0,0-.61-.57.48.48,0,0,0-.51.37l-.77,2.55Zm-10,1.58H83.54a1,1,0,0,1,1.09-1,1.07,1.07,0,0,1,1,1m1.26.5a2.32,2.32,0,0,0-2.29-2.52,2.43,2.43,0,0,0-2.49,2.52,2.37,2.37,0,0,0,2.51,2.52,2.87,2.87,0,0,0,1.61-.44.82.82,0,0,0,.47-.66.48.48,0,0,0-.53-.48.69.69,0,0,0-.48.22,1.69,1.69,0,0,1-1,.32,1.11,1.11,0,0,1-1.19-1h2.92a.43.43,0,0,0,.48-.43m-11.17,0a1.21,1.21,0,1,1,1.2,1.4A1.25,1.25,0,0,1,75.75,116.91Zm3.7-4.37a.66.66,0,0,0-1.32,0v2.63a1.66,1.66,0,0,0-1.47-.78,2.54,2.54,0,0,0,0,5,1.77,1.77,0,0,0,1.51-.78v.06a.64.64,0,1,0,1.28,0Zm-8.92,5.38c0,.36-.41.63-.93.63s-.88-.24-.88-.63.34-.62.88-.62.93.28.93.62m0,.81a.65.65,0,1,0,1.3,0v-2.25c0-1.36-.83-2.09-2.32-2.09-.52,0-2,.11-2,.83a.54.54,0,0,0,.56.54,9.07,9.07,0,0,1,1.3-.25c.86,0,1.13.32,1.13,1.06v.35a1.83,1.83,0,0,0-1.33-.5c-1,0-1.79.5-1.79,1.5a1.54,1.54,0,0,0,1.72,1.51,1.58,1.58,0,0,0,1.42-.73Zm-5.94,0v-2.12c0-1.32-.62-2.22-2-2.22a2,2,0,0,0-1.69.83,1.74,1.74,0,0,0-1.54-.83,1.54,1.54,0,0,0-1.38.8v-.08a.66.66,0,1,0-1.32,0v3.62a.66.66,0,1,0,1.32,0v-2c0-.58.25-1.14,1-1.14s1,.51,1,1.14v2a.67.67,0,0,0,.67.66.67.67,0,0,0,.66-.66v-2c0-.58.26-1.14,1-1.14s1,.51,1,1.14v2a.66.66,0,0,0,.66.66.67.67,0,0,0,.67-.66M50,116.91a1.21,1.21,0,1,1,1.2,1.4A1.25,1.25,0,0,1,50,116.91Zm3.7-4.37a.66.66,0,1,0-1.32,0v2.63a1.66,1.66,0,0,0-1.47-.78,2.54,2.54,0,0,0,0,5,1.77,1.77,0,0,0,1.51-.78v.06a.64.64,0,1,0,1.28,0Zm-9,4.18v2a.66.66,0,1,0,1.32,0v-2.07c0-1.32-.7-2.27-1.93-2.27a1.52,1.52,0,0,0-1.42.8v-.08a.66.66,0,1,0-1.32,0v3.62a.66.66,0,1,0,1.32,0v-2a1,1,0,0,1,1-1.14c.68,0,1,.51,1,1.14m-7.59,1.2c0,.36-.41.63-.92.63s-.88-.24-.88-.63.34-.62.88-.62.92.28.92.62m0,.81a.65.65,0,0,0,.65.66.64.64,0,0,0,.65-.66v-2.25c0-1.36-.82-2.09-2.32-2.09-.52,0-2,.11-2,.83a.54.54,0,0,0,.56.54,9.28,9.28,0,0,1,1.31-.25c.86,0,1.12.32,1.12,1.06v.35a1.82,1.82,0,0,0-1.33-.5c-1,0-1.78.5-1.78,1.5a1.54,1.54,0,0,0,1.71,1.51,1.56,1.56,0,0,0,1.42-.73Zm-9.29-3.54v-2.65a.66.66,0,0,0-1.32,0v6.19a.66.66,0,0,0,1.32,0v-2a1,1,0,0,1,1-1.14c.68,0,1,.51,1,1.14v2a.66.66,0,0,0,1.32,0v-2.07c0-1.32-.7-2.27-1.93-2.27a1.53,1.53,0,0,0-1.42.8" />
        <path class="sitetitle" d="M68.35,99.62l-.77-.05V89.88H69a2,2,0,0,1,1.85.91,5.51,5.51,0,0,1,.53,2.69V96.7c0,2-1,2.92-3.06,2.92m-.77-17V73.35h1.64c1.12,0,1.68.64,1.68,1.91v4.48a5,5,0,0,1-.36,2.12,1.38,1.38,0,0,1-1.37.75ZM59.91,106.5H70.54q4.88,0,6.75-3.21c1.25-2.14,1.87-3.34,1.87-7.51a16,16,0,0,0-1-6.16,4.94,4.94,0,0,0-3.47-3c2.68-.73,4-3,4-6.71V76.27q0-4.74-1.93-6.84c-1.3-1.4-3.37-2.1-6.23-2.1H59.91Zm-3.81,0V98.89H47.89v-9h7.38V82.52H47.89V74.9h7.7V67.33H39.91V106.5Zm-36.83,0,1.87-18.88,2,18.88h9.4l4.29-39.17H29L26.94,92.05l-2.1-24.72h-7.3L15.35,92.05,13.16,67.33H5.5L9.7,106.5Z" />
    </g>
    <polygon class="sitetitle" points="112.11 67.23 109.2 67.23 109.2 106.5 112.11 106.5 112.11 87.59 116.15 87.59 116.15 106.5 119.06 106.5 119.06 67.23 116.15 67.23 116.15 85.41 112.11 85.41 112.11 67.23" />
    <polygon class="sitetitle" points="135.89 106.5 131.88 67.23 127.51 67.23 123.5 106.5 126.41 106.5 129.7 72.13 132.99 106.5 135.89 106.5" />
    <g class="cls-2">
        <path class="sitetitle" d="M147.28,84a1.26,1.26,0,0,1-.25.84,1.44,1.44,0,0,1-.66.43,5.63,5.63,0,0,1-1.49.14h-1.64v-16l1.94,0a8.34,8.34,0,0,1,1.46.16.91.91,0,0,1,.49.43,1.91,1.91,0,0,1,.15.84Zm.56,2.5c1.06,0,2.35-1.09,2.35-3.23V70.86a3.77,3.77,0,0,0-.5-2.1,3,3,0,0,0-1.32-1.08,5.9,5.9,0,0,0-1.86-.4c-.7,0-2.54,0-3.27,0h-2.9V106.5h2.9V87.56h1.64a5.79,5.79,0,0,1,1.49.1,1.45,1.45,0,0,1,.66.44,1.22,1.22,0,0,1,.25.84V106.5h2.91V89.66c0-2.45-1.3-3.2-2.35-3.2" />
    </g>
    <polygon class="sitetitle" points="153.92 67.23 153.92 69.41 158.1 69.41 158.1 106.5 161.01 106.5 161.01 69.41 164.9 69.41 164.9 67.23 153.92 67.23" />
    <path class="hartlogo" d="M141.14,7.27a3,3,0,0,0-3,3,44.41,44.41,0,0,1-13.72,32.09L115.77,9.51A3,3,0,0,0,110,11l9.21,35a2.52,2.52,0,0,0,.21.54,44.4,44.4,0,0,1-53.75-1.67L74.54,11a3,3,0,1,0-5.8-1.53L60.66,40.19A44.44,44.44,0,0,1,49.08,10.27a3,3,0,1,0-6,0,50.53,50.53,0,0,0,101.06,0A3,3,0,0,0,141.14,7.27Z" />
    <g class="cls-6">
        <rect class="cls-7" x="81.91" y="66.44" width="24.21" height="29.99" />
    </g>
</svg>
